<svg width="326" height="149" viewBox="0 0 326 149" fill="none" xmlns="http://www.w3.org/2000/svg">
    <path d="M122.848 134.6C120.048 136.867 115.982 139.067 110.648 141.2C105.315 143.333 99.5818 145.133 93.4484 146.6C87.3151 147.933 81.5151 148.6 76.0484 148.6C60.7151 148.6 47.3818 145.533 36.0484 139.4C24.7151 133.133 15.9151 124.667 9.64844 114C3.5151 103.2 0.448438 91 0.448438 77.4C0.448438 65.2667 2.38177 54.4667 6.24844 45C10.2484 35.5333 15.6484 27.5333 22.4484 21C29.3818 14.3333 37.3151 9.33333 46.2484 5.99999C55.1818 2.53333 64.6484 0.799999 74.6484 0.799999C83.0484 0.799999 90.8484 1.8 98.0484 3.8C105.248 5.79999 111.582 8.33333 117.048 11.4L110.648 29.2C107.848 27.6 104.448 26.1333 100.448 24.8C96.5818 23.4667 92.5818 22.4 88.4484 21.6C84.3151 20.8 80.5151 20.4 77.0484 20.4C65.7151 20.4 55.7818 22.6667 47.2484 27.2C38.7151 31.7333 32.1151 38.1333 27.4484 46.4C22.7818 54.6667 20.4484 64.4667 20.4484 75.8C20.4484 86.3333 22.7818 95.6667 27.4484 103.8C32.1151 111.8 38.6484 118.067 47.0484 122.6C55.4484 127 65.2484 129.2 76.4484 129.2C81.2484 129.2 86.0484 128.733 90.8484 127.8C95.6484 126.867 99.7151 125.4 103.048 123.4V95H74.4484V76.2H122.848V134.6ZM261.72 2.39999C271.32 2.39999 279.987 4.13332 287.72 7.59999C295.454 10.9333 301.587 16 306.12 22.8C310.654 29.4667 312.92 37.6 312.92 47.2C312.92 55.4667 311.054 63.4667 307.32 71.2C303.72 78.9333 297.587 84.8 288.92 88.8L325.32 147H302.72L268.52 93.6C267.054 93.7333 265.52 93.8 263.92 93.8H242.52V147H223.12V2.39999H261.72ZM263.52 75C271.254 75 277.187 73.6 281.32 70.8C285.587 67.8667 288.587 64.3333 290.32 60.2C292.054 55.9333 292.92 51.8667 292.92 48C292.92 44.1333 291.987 40.1333 290.12 36C288.254 31.8667 285.254 28.3333 281.12 25.4C277.12 22.4667 271.72 21 264.92 21H242.52V75H263.52Z" fill="#686230"/>
    <path d="M168.401 67.064H176.561V80.6H190.001V88.472H176.561V102.008H168.401V88.472H155.057V80.6H168.401V67.064Z" fill="#686230"/>
</svg>


