<svg id="Layer_1" data-name="Layer 1" xmlns="http://www.w3.org/2000/svg" viewBox="0 0 1366 768"><defs><style>.cls-1{fill:#f4efdc;}</style></defs><title>nomes_claro-05</title><path class="cls-1" d="M209,380.46a2.3,2.3,0,0,1,1.77.84,2.45,2.45,0,0,1,.65,1.91,2.61,2.61,0,0,1-.88,1.78,2.83,2.83,0,0,1-1.91.7l-6.53-.47v24.71a2.64,2.64,0,0,1-4.52,1.82,2.5,2.5,0,0,1-.8-1.82v-6.15l-2.33,1.77a17,17,0,0,1-10.63,3.92q-9.13,0-15.48-8.86T162,378.88q0-12.87,6.34-21.73t15.48-8.86q6.52,0,12,5.13l1.87,1.4.74-2.7a2.78,2.78,0,0,1,1.35-1.64,2.44,2.44,0,0,1,2-.14,2.52,2.52,0,0,1,1.68,3.27,1.21,1.21,0,0,1-.09.46,5.37,5.37,0,0,0-.28,1q-.19.84-.33,1.59c-.09.49-.2,1.15-.33,1.95s-.22,1.57-.28,2.29-.11,1.51-.14,2.38a15.27,15.27,0,0,0,.1,2.47,15.71,15.71,0,0,0,.46,2.37,13.69,13.69,0,0,0,.8,2.24,2.7,2.7,0,0,1,.09,2.05,2.65,2.65,0,0,1-4.85.28,21.29,21.29,0,0,1-1.87-9l-.18-.65a20.68,20.68,0,0,0-5.74-7,11.53,11.53,0,0,0-7-2.47q-6.72,0-11.61,7.5a34.71,34.71,0,0,0,0,35.53q4.89,7.51,11.61,7.51a11.53,11.53,0,0,0,7-2.47,21,21,0,0,0,5.74-6.95l.18-9.42-10.35,1a2.49,2.49,0,0,1-1.77-.7,2.52,2.52,0,0,1-.84-1.63,2.6,2.6,0,0,1,.61-2,2.44,2.44,0,0,1,1.72-.93l13.06-1.31h.37Z"/><path class="cls-1" d="M284.44,404.71a2.58,2.58,0,0,1,1.82.75,2.45,2.45,0,0,1,.79,1.86,2.49,2.49,0,0,1-.79,1.87,2.62,2.62,0,0,1-1.82.74H265.51a2.56,2.56,0,0,1-1.87-.74,2.52,2.52,0,0,1-.74-1.87,2.49,2.49,0,0,1,.74-1.86,2.53,2.53,0,0,1,1.87-.75h6l-3.54-12H249.47l-3.45,12h5.87a2.53,2.53,0,0,1,1.87.75,2.49,2.49,0,0,1,.74,1.86,2.52,2.52,0,0,1-.74,1.87,2.56,2.56,0,0,1-1.87.74H233a2.62,2.62,0,0,1-1.82-.74,2.46,2.46,0,0,1-.79-1.87,2.42,2.42,0,0,1,.79-1.86,2.58,2.58,0,0,1,1.82-.75h7.55l15.77-54a2.39,2.39,0,0,1,2.51-1.87,2.42,2.42,0,0,1,2.52,2l15.57,53.9Zm-33.39-17.25h15.39L258.79,361Z"/><path class="cls-1" d="M352.32,380.18a15,15,0,0,1,2.29,3.5,18.1,18.1,0,0,1,1.21,3.36,20.62,20.62,0,0,1,.42,3.08,18.71,18.71,0,0,1,0,2.14c0,.34-.07.7-.14,1.07a14.81,14.81,0,0,1-4.66,11.38,16.27,16.27,0,0,1-5.78,3.5,25.91,25.91,0,0,1-5.5,1.49,36.16,36.16,0,0,1-3.92.23H307.75a2.56,2.56,0,0,1-1.87-.74,2.53,2.53,0,0,1-.75-1.87,2.49,2.49,0,0,1,.75-1.86,2.53,2.53,0,0,1,1.87-.75h9.42V354.17h-9.42a2.46,2.46,0,0,1-1.87-.8,2.68,2.68,0,0,1,0-3.72,2.46,2.46,0,0,1,1.87-.8h29.18A18.54,18.54,0,0,1,346,351a15.23,15.23,0,0,1,5.92,5.51,13.47,13.47,0,0,1,2,6.94,14,14,0,0,1-5.51,11.29l-1.67,1.3,1.86,1A17.67,17.67,0,0,1,352.32,380.18Zm-29.93-26V374h13.52l.37.09h.84a15.42,15.42,0,0,0,3.68-1,20.56,20.56,0,0,0,3.64-2,9.74,9.74,0,0,0,3-3.17,8.6,8.6,0,0,0-1.95-11c-2.09-1.89-4.93-2.84-8.54-2.84Zm25.45,46.62c2.06-1.92,3.08-4.6,3.08-8q.46-5.68-2.61-9.23-3.82-4.2-12.5-4.19H322.39v25.36H336Q343.83,404.71,347.84,400.79Z"/><path class="cls-1" d="M426.64,401.72a2.88,2.88,0,0,1,1.87.89,2.5,2.5,0,0,1,.69,1.87,2.56,2.56,0,0,1-.83,1.81,2.7,2.7,0,0,1-1.92.75l-10.16-.28a2.31,2.31,0,0,1-1.31-.37,3.23,3.23,0,0,1-.93-1,2.36,2.36,0,0,1-.37-1.26q-.1-8.38-.1-15.29a7.43,7.43,0,0,0-1.39-4,16.39,16.39,0,0,0-2.62-3.22,26.92,26.92,0,0,0-2.42-1.91l-.37-.28h-1.5L391.76,379v22.2l6.9.09a2.56,2.56,0,0,1,1.87.74,2.52,2.52,0,0,1,.74,1.87,2.49,2.49,0,0,1-.74,1.86,2.53,2.53,0,0,1-1.87.75l-19.86-.09a2.56,2.56,0,0,1-2.61-2.61,2.82,2.82,0,0,1,.33-1.36,2.2,2.2,0,0,1,.93-.93,2.75,2.75,0,0,1,1.35-.32h7.65V351H378.8a2.61,2.61,0,1,1,0-5.22h26.67A14.76,14.76,0,0,1,408,346c.9.15,1.86.37,2.89.65a15.11,15.11,0,0,1,3,1.17,30.79,30.79,0,0,1,2.89,1.68,11.44,11.44,0,0,1,2.61,2.33,20.39,20.39,0,0,1,2.1,3,14.45,14.45,0,0,1,1.45,3.77,20.19,20.19,0,0,1,.51,4.67q0,7.37-4.57,11.65a15.37,15.37,0,0,1-3.54,2.43l-1.68.84,1.21,1.4q4,4.56,4,9.23v11.28l.09,1.4Zm-11.28-30.67q2.79-2.71,2.79-7.74,0-6.06-3.82-9.1a14.92,14.92,0,0,0-8.95-3.21H391.76v22.66l14,.46H406Q412.09,374.12,415.36,371.05Z"/><path class="cls-1" d="M491.72,406a2.55,2.55,0,0,1,1.82.75,2.57,2.57,0,0,1,0,3.73,2.55,2.55,0,0,1-1.82.75H459.37a2.57,2.57,0,0,1-1.82-.75,2.6,2.6,0,0,1,0-3.73,2.57,2.57,0,0,1,1.82-.75H474l-1.87-52.22-14.55.19a2.47,2.47,0,0,1-1.81-.79,2.6,2.6,0,0,1,0-3.73,2.48,2.48,0,0,1,1.81-.8l32.09-.37a3.29,3.29,0,0,1,1.86.84,2.36,2.36,0,0,1,.84,1.82,2.59,2.59,0,0,1-.75,1.86,2.46,2.46,0,0,1-1.86.8l-12.31.09L479.23,406Z"/><path class="cls-1" d="M568.93,407a2.25,2.25,0,0,1-.46,1.12,2.49,2.49,0,0,1-.89.7,2.86,2.86,0,0,1-1.16.23l-43.65.93a2.58,2.58,0,0,1-1.81-.74,2.41,2.41,0,0,1-.79-1.82,2.62,2.62,0,0,1,.74-1.87,2.45,2.45,0,0,1,1.86-.79l9.33-.19V354l-9.23.19a3,3,0,0,1-1.91-.84,2.35,2.35,0,0,1-.79-1.77,2.65,2.65,0,0,1,.74-1.91,2.46,2.46,0,0,1,1.86-.8l44.11-.84h.1a2.47,2.47,0,0,1,1.67.65,2.89,2.89,0,0,1,.94,1.68l2.52,17.72a2.42,2.42,0,0,1-.47,1.91,2.47,2.47,0,0,1-3.08.89,3,3,0,0,1-1.12-.84,2.4,2.4,0,0,1-.56-1.21l-2.24-15.48-27.32.56V374l14.36-.19-.18-6.62a2.83,2.83,0,0,1,.32-1.3,2.51,2.51,0,0,1,.93-1,2.55,2.55,0,0,1,1.36-.37,2.63,2.63,0,0,1,1.77.65,3,3,0,0,1,.93,2l.47,18.46a2.66,2.66,0,0,1-.75,1.91,2.57,2.57,0,0,1-2,.8,2.64,2.64,0,0,1-1.26-.33,2.72,2.72,0,0,1-1-.93,2.63,2.63,0,0,1-.37-1.35l-.18-6.62-14.46.28v25.08l26.95-.65,3.64-16.6a2.79,2.79,0,0,1,1.16-1.63,2.35,2.35,0,0,1,2-.33,2.39,2.39,0,0,1,1.63,1.12,2.37,2.37,0,0,1,.33,2Z"/><path class="cls-1" d="M643.44,406a2.54,2.54,0,0,1-2.52,2.52L597,409.93a2.62,2.62,0,0,1-1.82-.74,2.36,2.36,0,0,1-.79-1.78,2.69,2.69,0,0,1,.75-1.91,2.32,2.32,0,0,1,1.77-.79l12-.37-.83-51-12.5.28a2.75,2.75,0,0,1-1.35-.33,2.2,2.2,0,0,1-.93-.93A2.78,2.78,0,0,1,593,351a2.2,2.2,0,0,1,.7-1.82,2.92,2.92,0,0,1,1.82-.89l30.21-.56a2.92,2.92,0,0,1,1.49.38,2.52,2.52,0,0,1,1,.93,3.32,3.32,0,0,1,.42,1.3,2.58,2.58,0,0,1-.74,1.82A2.46,2.46,0,0,1,626,353l-12.59.28.84,50.92,24.06-.84.75-20.7a2.39,2.39,0,0,1,.93-2,1.88,1.88,0,0,1,1.68-.56h.09a2.45,2.45,0,0,1,1.86.79,2.39,2.39,0,0,1,.66,1.91Z"/><path class="cls-1" d="M728.54,380.92a2.53,2.53,0,0,1,2.42,2.47,2.22,2.22,0,0,1-.74,1.68,2.43,2.43,0,0,1-1.68.7h-8.67v8.67a2.39,2.39,0,0,1-.7,1.68,2.22,2.22,0,0,1-1.68.74,2.53,2.53,0,0,1-2.47-2.42v-8.67h-8.58a2.38,2.38,0,0,1-1.73-.7,2.33,2.33,0,0,1-.7-1.68,2.5,2.5,0,0,1,.7-1.73,2.3,2.3,0,0,1,1.73-.74H715v-8.58a2.39,2.39,0,0,1,2.42-2.43,2.38,2.38,0,0,1,1.22.33,2.42,2.42,0,0,1,.88.89,2.32,2.32,0,0,1,.33,1.21v8.58Z"/><path class="cls-1" d="M832.37,402.66a2.82,2.82,0,0,1,1.87.88,2.52,2.52,0,0,1,.7,1.87,2.55,2.55,0,0,1-.84,1.82,2.68,2.68,0,0,1-1.91.74L822,407.69a2.26,2.26,0,0,1-1.3-.37,3,3,0,0,1-.94-1,2.42,2.42,0,0,1-.37-1.26q-.09-8.38-.09-15.29a7.48,7.48,0,0,0-1.4-4,16.4,16.4,0,0,0-2.61-3.22,28.41,28.41,0,0,0-2.42-1.91l-.38-.28H811l-13.52-.47v22.2l6.9.09a2.61,2.61,0,1,1,0,5.22l-19.87-.09a2.56,2.56,0,0,1-1.86-.74,2.52,2.52,0,0,1-.74-1.87,2.75,2.75,0,0,1,.32-1.35,2.2,2.2,0,0,1,.93-.93,2.81,2.81,0,0,1,1.35-.33h7.65V351.93h-7.65a2.65,2.65,0,0,1-1.86-4.48,2.56,2.56,0,0,1,1.86-.74h26.68a15.69,15.69,0,0,1,2.56.23c.9.16,1.86.38,2.89.65a14.87,14.87,0,0,1,3,1.17c1,.5,1.93,1.06,2.89,1.68a11.51,11.51,0,0,1,2.62,2.33,21.11,21.11,0,0,1,2.09,3,14,14,0,0,1,1.45,3.78,20.1,20.1,0,0,1,.51,4.66q0,7.36-4.57,11.65a14.38,14.38,0,0,1-3.54,2.43l-1.68.84,1.21,1.4q4,4.56,4,9.23v11.28l.1,1.4ZM821.09,372c1.86-1.8,2.8-4.38,2.8-7.74q0-6.06-3.83-9.09a14.93,14.93,0,0,0-8.95-3.22H797.5v22.66l14,.47h.28Q817.83,375.06,821.09,372Z"/><path class="cls-1" d="M906.14,405.64a2.56,2.56,0,0,1,1.81.75,2.57,2.57,0,0,1,0,3.73,2.55,2.55,0,0,1-1.81.74H887.2a2.61,2.61,0,1,1,0-5.22h6l-3.54-12H871.17l-3.45,12h5.87a2.55,2.55,0,0,1,2.61,2.61,2.56,2.56,0,0,1-.74,1.87,2.52,2.52,0,0,1-1.87.74H854.66a2.57,2.57,0,0,1-1.82-.74,2.6,2.6,0,0,1,0-3.73,2.58,2.58,0,0,1,1.82-.75h7.55l15.76-54a2.62,2.62,0,0,1,5,.09l15.57,53.9Zm-33.39-17.25h15.39l-7.65-26.48Z"/><path class="cls-1" d="M939.52,404.06a29.24,29.24,0,0,1-8.16-11.47,41.81,41.81,0,0,1,.14-31.15A28.49,28.49,0,0,1,939.84,350a17.79,17.79,0,0,1,22.94,0,28.51,28.51,0,0,1,8.35,11.47,41.54,41.54,0,0,1,.23,30.82,29.84,29.84,0,0,1-7.78,11.42l-.56.75.09.75a8.22,8.22,0,0,0,.19,1.58c.18,2.86.62,4.54,1.3,5a3.41,3.41,0,0,0,3.64.46c1.61-.74,2.58-2.89,2.89-6.43A2.4,2.4,0,0,1,972,404a2.71,2.71,0,0,1,2-.65,2.56,2.56,0,0,1,1.82.93,2.65,2.65,0,0,1,.6,2,15.67,15.67,0,0,1-2.05,7.32,9.43,9.43,0,0,1-3.92,3.59,8.27,8.27,0,0,1-4.57.61,9,9,0,0,1-4.38-1.73q-2.61-2-3.26-6.9l-.19-1.77-1.68.47q-8.58,2.7-16.22-3.27Zm24.15-45.23q-5.22-7.74-12.4-7.74t-12.41,7.74a32.06,32.06,0,0,0-5.22,18.37q0,11.48,6.06,19.4l1,1.4,1.21-1.31q4.2-4.94,8.12-4.94c3.22,0,6.43,2,9.6,6.06l1.12,1.3,1.12-1.3a27.29,27.29,0,0,0,5.13-9.19,35.1,35.1,0,0,0,1.86-11.42A32.06,32.06,0,0,0,963.67,358.83Zm-9.42,44,2.33-.56L955,400.51q-3-3.45-5.22-3.45-1.41.29-3.64,2.89l-1.4,1.59,2,.75a11.75,11.75,0,0,0,4.57,1A12.11,12.11,0,0,0,954.25,402.85Z"/><path class="cls-1" d="M1048.34,348.48a2.79,2.79,0,0,1,1.86.89,2.44,2.44,0,0,1,.7,1.86,2.38,2.38,0,0,1-.84,1.77,2.76,2.76,0,0,1-1.91.7l-5.41-.18v1.58c.13,4,.23,7.49.33,10.35s.22,6.58.37,11.15.28,8.22.37,10.95.14,4.32.14,4.76a19.21,19.21,0,0,1-.46,4,21.14,21.14,0,0,1-1.77,4.85,20.22,20.22,0,0,1-3.31,4.8,15.49,15.49,0,0,1-5.5,3.59A20.4,20.4,0,0,1,1025,411a18.82,18.82,0,0,1-7.13-1.31,15.06,15.06,0,0,1-5.18-3.31,20.56,20.56,0,0,1-3.35-4.57,21.86,21.86,0,0,1-2-4.85,20.75,20.75,0,0,1-.69-4.43V353.8h-6.16a2.43,2.43,0,0,1-1.86-.8,2.67,2.67,0,0,1-.75-1.91,2.56,2.56,0,0,1,2.61-2.61H1018a2.55,2.55,0,0,1,2.61,2.61,2.71,2.71,0,0,1-.74,1.91,2.46,2.46,0,0,1-1.87.8h-6.15v38.6a17.28,17.28,0,0,0,.93,4.2,18.93,18.93,0,0,0,2.19,4.29,10.65,10.65,0,0,0,4.06,3.49,12.68,12.68,0,0,0,6,1.36,14.73,14.73,0,0,0,6.63-1.4,10.75,10.75,0,0,0,4.24-3.59,17.09,17.09,0,0,0,2.1-4.34,14.26,14.26,0,0,0,.65-4.1q0-2-1.21-37.68v-1.39l-7.65-.38a2.42,2.42,0,0,1-1.86-.79,2.39,2.39,0,0,1-.66-1.91,2.35,2.35,0,0,1,.89-1.87,2.44,2.44,0,0,1,1.82-.65Z"/><path class="cls-1" d="M1118.65,407.88a2.31,2.31,0,0,1-.47,1.12,2.39,2.39,0,0,1-.89.7,2.7,2.7,0,0,1-1.16.23l-43.64.93a2.54,2.54,0,0,1-1.82-.74,2.41,2.41,0,0,1-.79-1.82,2.6,2.6,0,0,1,.74-1.86,2.46,2.46,0,0,1,1.87-.8l9.32-.18V354.91l-9.23.19a3,3,0,0,1-1.91-.84,2.35,2.35,0,0,1-.79-1.77,2.66,2.66,0,0,1,.74-1.91,2.46,2.46,0,0,1,1.87-.79l44.1-.84h.1a2.47,2.47,0,0,1,1.68.65,2.87,2.87,0,0,1,.93,1.68l2.52,17.72a2.42,2.42,0,0,1-.47,1.91,2.59,2.59,0,0,1-1.68,1.07,2.65,2.65,0,0,1-1.4-.19,2.93,2.93,0,0,1-1.12-.84,2.44,2.44,0,0,1-.56-1.21l-2.23-15.48-27.33.56V375l14.37-.18-.19-6.62a2.77,2.77,0,0,1,.33-1.31,2.44,2.44,0,0,1,.93-1,2.58,2.58,0,0,1,1.35-.37,2.63,2.63,0,0,1,1.77.65,3.06,3.06,0,0,1,.93,2l.47,18.47a2.72,2.72,0,0,1-.74,1.91,2.6,2.6,0,0,1-2,.79,2.57,2.57,0,0,1-1.25-.33,2.43,2.43,0,0,1-1-.93,2.49,2.49,0,0,1-.37-1.35l-.19-6.62-14.46.28v25.08l27-.65,3.64-16.6a2.8,2.8,0,0,1,1.17-1.63,2.68,2.68,0,0,1,3.63.79,2.3,2.3,0,0,1,.33,2Z"/><path class="cls-1" d="M1193.15,407a2.54,2.54,0,0,1-2.52,2.52l-43.92,1.39a2.57,2.57,0,0,1-1.82-.74,2.39,2.39,0,0,1-.79-1.77,2.66,2.66,0,0,1,.75-1.91,2.33,2.33,0,0,1,1.77-.8l12-.37-.84-51-12.5.28a2.78,2.78,0,0,1-1.35-.33,2.2,2.2,0,0,1-.93-.93,2.75,2.75,0,0,1-.33-1.35,2.21,2.21,0,0,1,.7-1.82,2.91,2.91,0,0,1,1.82-.88l30.21-.56a2.92,2.92,0,0,1,1.49.37,2.52,2.52,0,0,1,1,.93,3.32,3.32,0,0,1,.42,1.31,2.57,2.57,0,0,1-.74,1.82,2.49,2.49,0,0,1-1.87.79l-12.58.28.83,50.91,24.06-.84.75-20.7a2.39,2.39,0,0,1,.93-2,1.9,1.9,0,0,1,1.68-.56h.09a2.46,2.46,0,0,1,1.87.8,2.4,2.4,0,0,1,.65,1.91Z"/></svg>